<?xml version="1.0" encoding="UTF-8"?>
<svg width="68px" height="38px" viewBox="0 0 68 38" version="1.1" xmlns="http://www.w3.org/2000/svg" xmlns:xlink="http://www.w3.org/1999/xlink">
    <!-- Generator: Sketch 46.2 (44496) - http://www.bohemiancoding.com/sketch -->
    <title>Logo</title>
    <desc>Created with Sketch.</desc>
    <defs></defs>
    <g id="Page-1" stroke="none" stroke-width="1" fill="none" fill-rule="evenodd">
        <g id="Onboarding" transform="translate(-129.000000, -42.000000)">
            <g id="Layout" transform="translate(-16.000000, 0.000000)">
                <g id="Logo" transform="translate(145.000000, 42.000000)">
                    <path d="M9.728,10 L21.296,10 L21.296,14.2 L14.6,14.2 L14.6,17.104 L20.576,17.104 L20.576,20.896 L14.6,20.896 L14.6,28 L9.728,28 L9.728,10 Z M27.736,14.2 L22.984,14.2 L22.984,10 L37.36,10 L37.36,14.2 L32.608,14.2 L32.608,28 L27.736,28 L27.736,14.2 Z M43.44,14.2 L38.688,14.2 L38.688,10 L53.064,10 L53.064,14.2 L48.312,14.2 L48.312,28 L43.44,28 L43.44,14.2 Z M53.72,23.488 L58.232,23.488 L58.232,28 L53.72,28 L53.72,23.488 Z" id="FTT." fill="#333235"></path>
                    <rect id="Rectangle" stroke="#333235" stroke-width="3" x="1.5" y="1.5" width="65" height="35"></rect>
                </g>
            </g>
        </g>
    </g>
</svg>