<?xml version="1.0" encoding="UTF-8"?>
<svg width="314px" height="168px" viewBox="0 0 314 168" version="1.1" xmlns="http://www.w3.org/2000/svg" xmlns:xlink="http://www.w3.org/1999/xlink">
    <!-- Generator: Sketch 46.2 (44496) - http://www.bohemiancoding.com/sketch -->
    <title>Group 3</title>
    <desc>Created with Sketch.</desc>
    <defs></defs>
    <g id="Page-1" stroke="none" stroke-width="1" fill="none" fill-rule="evenodd">
        <g id="Login" transform="translate(-618.000000, -169.000000)">
            <g id="Group-2" transform="translate(618.000000, 169.000000)">
                <g id="Group">
                    <g id="Group-3">
                        <path d="M0.915308454,1.21553694 L27.1261234,1.21553694 L27.1261234,10.7319117 L11.9543031,10.7319117 L11.9543031,17.311805 L25.4947449,17.311805 L25.4947449,25.9037319 L11.9543031,25.9037319 L11.9543031,42 L0.915308454,42 L0.915308454,1.21553694 Z M33.9658289,1.21553694 L45.0048236,1.21553694 L45.0048236,42 L33.9658289,42 L33.9658289,1.21553694 Z M53.8021834,1.21553694 L80.0129983,1.21553694 L80.0129983,10.7319117 L64.841178,10.7319117 L64.841178,17.311805 L78.3816198,17.311805 L78.3816198,25.9037319 L64.841178,25.9037319 L64.841178,42 L53.8021834,42 L53.8021834,1.21553694 Z M94.8464586,10.7319117 L84.0793604,10.7319117 L84.0793604,1.21553694 L116.652552,1.21553694 L116.652552,10.7319117 L105.885453,10.7319117 L105.885453,42 L94.8464586,42 L94.8464586,10.7319117 Z M131.64915,26.2300076 L118.978777,5.51150038 L118.978777,1.21553694 L129.528358,1.21553694 L137.848388,16.3873572 L145.787764,1.21553694 L155.086621,1.21553694 L155.086621,5.4571211 L142.688144,26.2843869 L142.688144,42 L131.64915,42 L131.64915,26.2300076 Z" id="FIFTY" fill="#333235"></path>
                        <path d="M171.150647,42.9788271 C169.15673,42.9788271 167.325979,42.6978703 165.65834,42.1359482 C163.9907,41.5740261 162.5406,40.8217869 161.307997,39.8792079 C160.075394,38.936629 159.069387,37.8490541 158.289947,36.6164509 C157.510506,35.3838476 156.993908,34.0968841 156.740137,32.7555217 L156.740137,28.5139375 L165.712719,28.5139375 C165.785225,29.0577331 165.930235,29.6105836 166.147753,30.1725057 C166.365271,30.7344278 166.673418,31.2600889 167.072201,31.749505 C167.470984,32.238921 167.996646,32.6376984 168.6492,32.9458492 C169.301755,33.254 170.117436,33.4080731 171.096268,33.4080731 C172.655149,33.4080731 173.824292,32.882412 174.603732,31.8310739 C175.383172,30.7797358 175.772887,29.6015298 175.772887,28.2964204 C175.772887,27.0275641 175.34692,25.8856106 174.494973,24.8705255 C173.643027,23.8554405 172.401379,23.3479056 170.769992,23.3479056 C169.972426,23.3479056 169.292691,23.4204105 168.730769,23.5654227 C168.168847,23.7104348 167.706628,23.8735711 167.344097,24.0548363 C166.909061,24.2723545 166.546536,24.5261219 166.256512,24.8161462 L158.752171,21.8252856 L160.601066,1.21553694 L184.038538,1.21553694 L184.038538,10.3512567 L169.301752,10.3512567 L168.866717,15.1910129 C169.338007,15.0822538 169.899921,14.9734964 170.552475,14.8647372 C171.20503,14.7559781 171.948206,14.7015994 172.782026,14.7015994 C174.920955,14.7015994 176.8514,15.0188087 178.57342,15.6532369 C180.295439,16.287665 181.763665,17.1849142 182.978142,18.3450114 C184.192618,19.5051086 185.135183,20.928019 185.805864,22.6137852 C186.476546,24.2995515 186.811881,26.175618 186.811881,28.2420411 C186.811881,30.4172234 186.458419,32.4111105 185.751485,34.2237624 C185.044551,36.0364142 184.011355,37.5862083 182.651866,38.8731912 C181.292377,40.160174 179.651952,41.1661807 177.730541,41.8912414 C175.80913,42.6163022 173.615854,42.9788271 171.150647,42.9788271 Z M208.225235,42.9788271 C205.687522,42.9788271 203.421741,42.5800497 201.427824,41.7824829 C199.433907,40.984916 197.748166,39.8882781 196.370551,38.4925362 C194.992936,37.0967942 193.941613,35.465432 193.216552,33.5984006 C192.491492,31.7313692 192.128967,29.7465452 192.128967,27.643869 L192.128967,15.5716679 C192.128967,13.4327387 192.500555,11.4297885 193.243742,9.56275704 C193.986929,7.69572562 195.047315,6.07342654 196.42493,4.69581112 C197.802546,3.3181957 199.488287,2.2306209 201.482204,1.43305407 C203.476121,0.635487254 205.723775,0.236709825 208.225235,0.236709825 C210.762947,0.236709825 213.028728,0.62642413 215.022645,1.40586443 C217.016562,2.18530473 218.702303,3.27287954 220.079919,4.66862148 C221.457534,6.06436341 222.508857,7.69572562 223.233917,9.56275704 C223.958978,11.4297885 224.321503,13.4327387 224.321503,15.5716679 L224.321503,27.643869 C224.321503,29.7465452 223.949915,31.7313692 223.206728,33.5984006 C222.46354,35.465432 221.403155,37.0967942 220.02554,38.4925362 C218.647924,39.8882781 216.962183,40.984916 214.968266,41.7824829 C212.974349,42.5800497 210.726694,42.9788271 208.225235,42.9788271 Z M208.225235,33.5168317 C210.001634,33.5168317 211.361102,32.9458549 212.303681,31.8038842 C213.24626,30.6619136 213.717543,29.2752557 213.717543,27.643869 L213.717543,15.5716679 C213.717543,13.9402813 213.264386,12.5536234 212.35806,11.4116527 C211.451735,10.269682 210.07414,9.69870526 208.225235,9.69870526 C206.448836,9.69870526 205.089368,10.269682 204.146789,11.4116527 C203.20421,12.5536234 202.732927,13.9402813 202.732927,15.5716679 L202.732927,27.643869 C202.732927,29.2752557 203.186083,30.6619136 204.092409,31.8038842 C204.998735,32.9458549 206.37633,33.5168317 208.225235,33.5168317 Z" id="50" fill="#3867FA"></path>
                        <path d="M11.4985529,56.0479817 L0.731454684,56.0479817 L0.731454684,46.531607 L33.3046458,46.531607 L33.3046458,56.0479817 L22.5375476,56.0479817 L22.5375476,87.3160701 L11.4985529,87.3160701 L11.4985529,56.0479817 Z M39.3286621,46.531607 L50.3676568,46.531607 L50.3676568,61.649048 L63.9624778,61.649048 L63.9624778,46.531607 L75.0014725,46.531607 L75.0014725,87.3160701 L63.9624778,87.3160701 L63.9624778,71.1110434 L50.3676568,71.1110434 L50.3676568,87.3160701 L39.3286621,87.3160701 L39.3286621,46.531607 Z M83.7988323,46.531607 L94.8378269,46.531607 L94.8378269,87.3160701 L83.7988323,87.3160701 L83.7988323,46.531607 Z M103.635187,87.3160701 L103.635187,46.531607 L118.317593,46.531607 C120.855306,46.531607 123.148276,46.8578794 125.196573,47.5104341 C127.244869,48.1629888 128.984989,49.0964905 130.416984,50.3109673 C131.848979,51.525444 132.945617,52.99367 133.706931,54.7156893 C134.468245,56.4377085 134.848896,58.3681538 134.848896,60.507083 C134.848896,62.7547713 134.268856,64.8392897 133.108759,66.7607007 C131.948662,68.6821117 130.262921,70.2772214 128.051485,71.5460777 L136.262757,83.0201066 L136.262757,87.3160701 L125.985072,87.3160701 L117.393146,74.4281797 L114.674181,74.4281797 L114.674181,87.3160701 L103.635187,87.3160701 Z M118.263214,65.6187357 C120.00336,65.6187357 121.362828,65.1474533 122.34166,64.2048743 C123.320492,63.2622954 123.809901,62.0297106 123.809901,60.507083 C123.809901,59.0569615 123.320492,57.915008 122.34166,57.0811881 C121.362828,56.2473683 120.00336,55.8304646 118.263214,55.8304646 L114.456664,55.8304646 L114.456664,65.6187357 L118.263214,65.6187357 Z M149.899873,56.0479817 L139.132775,56.0479817 L139.132775,46.531607 L171.705966,46.531607 L171.705966,56.0479817 L160.938868,56.0479817 L160.938868,87.3160701 L149.899873,87.3160701 L149.899873,56.0479817 Z M186.702564,71.5460777 L174.032191,50.8275704 L174.032191,46.531607 L184.581772,46.531607 L192.901803,61.7034273 L200.841178,46.531607 L210.140036,46.531607 L210.140036,50.7731912 L197.741559,71.600457 L197.741559,87.3160701 L186.702564,87.3160701 L186.702564,71.5460777 Z" id="THIRTY" fill="#333235"></path>
                        <path d="M227.183854,87.9788271 C225.081178,87.9788271 223.150732,87.679744 221.39246,87.0815689 C219.634188,86.4833938 218.10252,85.7039652 216.797411,84.7432597 C215.492301,83.7825542 214.431916,82.6859163 213.616222,81.453313 C212.800529,80.2207098 212.265805,78.9699987 212.012034,77.7011424 L212.012034,73.405179 L220.930236,73.405179 C221.111501,73.9489745 221.365269,74.5199513 221.691546,75.1181264 C222.017823,75.7163015 222.44379,76.2600889 222.969459,76.749505 C223.495128,77.238921 224.093294,77.6376984 224.763976,77.9458492 C225.434657,78.254 226.205022,78.4080731 227.075095,78.4080731 C228.597723,78.4080731 229.730613,78.0364851 230.4738,77.2932978 C231.216988,76.5501105 231.588576,75.5441038 231.588576,74.2752475 C231.588576,73.1151503 231.198861,72.1907117 230.419421,71.501904 C229.639981,70.8130963 228.416459,70.4686976 226.748819,70.4686976 L222.12658,70.4686976 L222.12658,62.3661843 L225.824372,62.3661843 C227.346999,62.3661843 228.470827,62.0036594 229.195887,61.2785986 C229.920948,60.5535379 230.283473,59.6290993 230.283473,58.5052551 C230.283473,57.3089049 229.920948,56.3754032 229.195887,55.704722 C228.470827,55.0340408 227.528262,54.6987053 226.368165,54.6987053 C225.606851,54.6987053 224.93618,54.8346521 224.356131,55.1065499 C223.776082,55.3784477 223.286674,55.7319095 222.88789,56.1669459 C222.489107,56.6019824 222.171898,57.1004542 221.936253,57.6623762 C221.700608,58.2242983 221.546535,58.7952751 221.474029,59.3753237 L212.610206,59.3753237 L212.610206,55.0793602 C212.827724,53.919263 213.28088,52.7591833 213.969688,51.5990861 C214.658495,50.4389889 215.591997,49.3876666 216.770221,48.4450876 C217.948445,47.5025086 219.398544,46.7321431 221.120564,46.133968 C222.842583,45.5357929 224.845533,45.2367098 227.129474,45.2367098 C229.159645,45.2367098 231.044774,45.4995404 232.78492,46.0252094 C234.525066,46.5508785 236.029544,47.3031177 237.298401,48.2819497 C238.567257,49.2607817 239.555137,50.4480509 240.262072,51.8437928 C240.969006,53.2395348 241.322468,54.8074551 241.322468,56.5476009 C241.322468,58.614024 240.80587,60.4538381 239.772658,62.0670982 C238.739446,63.6803584 237.280284,64.8676276 235.395126,65.6289414 C237.679067,66.20899 239.455439,67.3237541 240.724296,68.9732673 C241.993152,70.6227805 242.62757,72.643857 242.62757,75.0365575 C242.62757,76.9217154 242.265046,78.6618351 241.539985,80.2569688 C240.814924,81.8521024 239.790791,83.220634 238.467555,84.3626047 C237.144319,85.5045754 235.531083,86.3927615 233.627799,87.0271896 C231.724514,87.6616178 229.576554,87.9788271 227.183854,87.9788271 Z M264.3672,87.9788271 C261.829487,87.9788271 259.563706,87.5800497 257.569789,86.7824829 C255.575872,85.984916 253.890131,84.8882781 252.512516,83.4925362 C251.1349,82.0967942 250.083578,80.465432 249.358517,78.5984006 C248.633457,76.7313692 248.270932,74.7465452 248.270932,72.643869 L248.270932,60.5716679 C248.270932,58.4327387 248.64252,56.4297885 249.385707,54.562757 C250.128894,52.6957256 251.18928,51.0734265 252.566895,49.6958111 C253.944511,48.3181957 255.630252,47.2306209 257.624169,46.4330541 C259.618086,45.6354873 261.86574,45.2367098 264.3672,45.2367098 C266.904912,45.2367098 269.170693,45.6264241 271.16461,46.4058644 C273.158527,47.1853047 274.844268,48.2728795 276.221884,49.6686215 C277.599499,51.0643634 278.650821,52.6957256 279.375882,54.562757 C280.100943,56.4297885 280.463468,58.4327387 280.463468,60.5716679 L280.463468,72.643869 C280.463468,74.7465452 280.09188,76.7313692 279.348693,78.5984006 C278.605505,80.465432 277.54512,82.0967942 276.167504,83.4925362 C274.789889,84.8882781 273.104148,85.984916 271.110231,86.7824829 C269.116314,87.5800497 266.868659,87.9788271 264.3672,87.9788271 Z M264.3672,78.5168317 C266.143599,78.5168317 267.503067,77.9458549 268.445646,76.8038842 C269.388225,75.6619136 269.859508,74.2752557 269.859508,72.643869 L269.859508,60.5716679 C269.859508,58.9402813 269.406351,57.5536234 268.500025,56.4116527 C267.593699,55.269682 266.216105,54.6987053 264.3672,54.6987053 C262.590801,54.6987053 261.231333,55.269682 260.288754,56.4116527 C259.346175,57.5536234 258.874892,58.9402813 258.874892,60.5716679 L258.874892,72.643869 C258.874892,74.2752557 259.328048,75.6619136 260.234374,76.8038842 C261.1407,77.9458549 262.518295,78.5168317 264.3672,78.5168317 Z" id="30" fill="#24CC82"></path>
                        <path d="M11.4985529,102.658797 L0.731454684,102.658797 L0.731454684,93.1424219 L33.3046458,93.1424219 L33.3046458,102.658797 L22.5375476,102.658797 L22.5375476,133.926885 L11.4985529,133.926885 L11.4985529,102.658797 Z M63.2555471,112.28393 L57.5457223,133.926885 L45.5279005,133.926885 L36.5553187,97.4927647 L36.5553187,93.1424219 L47.3767962,93.1424219 L52.2165525,119.679513 L58.6876873,93.1424219 L68.5303377,93.1424219 L74.6208175,119.679513 L79.7868495,93.1424219 L90.1189135,93.1424219 L90.1189135,96.9489718 L81.037573,133.926885 L69.0197512,133.926885 L63.2555471,112.28393 Z M96.0341712,93.1424219 L123.169434,93.1424219 L123.169434,102.658797 L107.073166,102.658797 L107.073166,108.694897 L121.048642,108.694897 L121.048642,117.286824 L107.073166,117.286824 L107.073166,124.41051 L123.169434,124.41051 L123.169434,133.926885 L96.0341712,133.926885 L96.0341712,93.1424219 Z M130.607312,93.1424219 L141.102513,93.1424219 L156.274334,115.546687 L156.274334,93.1424219 L166.769536,93.1424219 L166.769536,133.926885 L156.274334,133.926885 L141.102513,111.957654 L141.102513,133.926885 L130.607312,133.926885 L130.607312,93.1424219 Z M183.56065,102.658797 L172.793552,102.658797 L172.793552,93.1424219 L205.366743,93.1424219 L205.366743,102.658797 L194.599645,102.658797 L194.599645,133.926885 L183.56065,133.926885 L183.56065,102.658797 Z M220.363341,118.156893 L207.692968,97.4383854 L207.692968,93.1424219 L218.242549,93.1424219 L226.56258,108.314242 L234.501955,93.1424219 L243.800813,93.1424219 L243.800813,97.3840061 L231.402336,118.211272 L231.402336,133.926885 L220.363341,133.926885 L220.363341,118.156893 Z" id="TWENTY" fill="#333235"></path>
                        <path d="M3.1,163 L0.9,163 L0.9,148 L3.1,148 L3.1,155.14 L9.64,148 L11.04,148 L11.04,149.4 L5.52,155.32 L11.5,161.5 L11.5,163 L10,163 L3.1,155.82 L3.1,163 Z M18.13,163.2 C17.329996,163.2 16.6166698,163.063335 15.99,162.79 C15.3633302,162.516665 14.8300022,162.143336 14.39,161.67 C13.9499978,161.196664 13.6166678,160.643337 13.39,160.01 C13.1633322,159.376664 13.05,158.700004 13.05,157.98 C13.05,157.259996 13.1633322,156.58667 13.39,155.96 C13.6166678,155.33333 13.9499978,154.786669 14.39,154.32 C14.8300022,153.853331 15.3633302,153.483335 15.99,153.21 C16.6166698,152.936665 17.329996,152.8 18.13,152.8 C18.930004,152.8 19.6433302,152.936665 20.27,153.21 C20.8966698,153.483335 21.4266645,153.853331 21.86,154.32 C22.2933355,154.786669 22.6266655,155.33333 22.86,155.96 C23.0933345,156.58667 23.21,157.259996 23.21,157.98 C23.21,158.700004 23.0933345,159.376664 22.86,160.01 C22.6266655,160.643337 22.2933355,161.196664 21.86,161.67 C21.4266645,162.143336 20.8966698,162.516665 20.27,162.79 C19.6433302,163.063335 18.930004,163.2 18.13,163.2 Z M18.13,161.5 C18.6500026,161.5 19.1033314,161.406668 19.49,161.22 C19.8766686,161.033332 20.1966654,160.780002 20.45,160.46 C20.7033346,160.139998 20.8933327,159.766669 21.02,159.34 C21.1466673,158.913331 21.21,158.460002 21.21,157.98 C21.21,157.499998 21.1466673,157.050002 21.02,156.63 C20.8933327,156.209998 20.7033346,155.843335 20.45,155.53 C20.1966654,155.216665 19.8766686,154.966668 19.49,154.78 C19.1033314,154.593332 18.6500026,154.5 18.13,154.5 C17.6099974,154.5 17.1566686,154.593332 16.77,154.78 C16.3833314,154.966668 16.0633346,155.216665 15.81,155.53 C15.5566654,155.843335 15.3666673,156.209998 15.24,156.63 C15.1133327,157.050002 15.05,157.499998 15.05,157.98 C15.05,158.460002 15.1133327,158.913331 15.24,159.34 C15.3666673,159.766669 15.5566654,160.139998 15.81,160.46 C16.0633346,160.780002 16.3833314,161.033332 16.77,161.22 C17.1566686,161.406668 17.6099974,161.5 18.13,161.5 Z M25.92,153 L34.52,153 L34.52,163 L32.52,163 L32.52,154.7 L27.92,154.7 L27.92,163 L25.92,163 L25.92,153 Z M37.85,153 L39.85,153 L39.85,160.02 L45.05,153 L46.85,153 L46.85,163 L44.85,163 L44.85,155.96 L39.65,163 L37.85,163 L37.85,153 Z M52.28,154.7 L49.08,154.7 L49.08,153 L57.48,153 L57.48,154.7 L54.28,154.7 L54.28,163 L52.28,163 L52.28,154.7 Z M59.71,153 L61.71,153 L61.71,156.4 L63.71,156.4 C64.4166702,156.4 65.0266641,156.479999 65.54,156.64 C66.0533359,156.800001 66.476665,157.026665 66.81,157.32 C67.143335,157.613335 67.3933325,157.953331 67.56,158.34 C67.7266675,158.726669 67.81,159.153331 67.81,159.62 C67.81,160.100002 67.7300008,160.543331 67.57,160.95 C67.4099992,161.356669 67.1600017,161.713332 66.82,162.02 C66.4799983,162.326668 66.0500026,162.566666 65.53,162.74 C65.0099974,162.913334 64.3966702,163 63.69,163 L59.71,163 L59.71,153 Z M63.55,161.4 C64.21667,161.4 64.7433314,161.266668 65.13,161 C65.5166686,160.733332 65.71,160.280003 65.71,159.64 C65.71,159.079997 65.5233352,158.666668 65.15,158.4 C64.7766648,158.133332 64.2433368,158 63.55,158 L61.71,158 L61.71,161.4 L63.55,161.4 Z M75.33,153 L77.33,153 L77.33,160.02 L82.53,153 L84.33,153 L84.33,163 L82.33,163 L82.33,155.96 L77.13,163 L75.33,163 L75.33,153 Z M94.79,154.7 L91.59,154.7 L91.59,153 L99.99,153 L99.99,154.7 L96.79,154.7 L96.79,163 L94.79,163 L94.79,154.7 Z M102.22,153 L104.02,153 L104.2,154.58 C104.586669,154.019997 105.07333,153.583335 105.66,153.27 C106.24667,152.956665 106.926663,152.8 107.7,152.8 C108.433337,152.8 109.089997,152.936665 109.67,153.21 C110.250003,153.483335 110.739998,153.853331 111.14,154.32 C111.540002,154.786669 111.846666,155.33333 112.06,155.96 C112.273334,156.58667 112.38,157.259996 112.38,157.98 C112.38,158.700004 112.273334,159.376664 112.06,160.01 C111.846666,160.643337 111.540002,161.196664 111.14,161.67 C110.739998,162.143336 110.250003,162.516665 109.67,162.79 C109.089997,163.063335 108.433337,163.2 107.7,163.2 C106.926663,163.2 106.250003,163.043335 105.67,162.73 C105.089997,162.416665 104.606669,161.986669 104.22,161.44 L104.22,168 L102.22,168 L102.22,153 Z M107.3,161.5 C107.820003,161.5 108.273331,161.406668 108.66,161.22 C109.046669,161.033332 109.366665,160.780002 109.62,160.46 C109.873335,160.139998 110.063333,159.766669 110.19,159.34 C110.316667,158.913331 110.38,158.460002 110.38,157.98 C110.38,157.499998 110.316667,157.050002 110.19,156.63 C110.063333,156.209998 109.873335,155.840002 109.62,155.52 C109.366665,155.199998 109.046669,154.950001 108.66,154.77 C108.273331,154.589999 107.820003,154.5 107.3,154.5 C106.819998,154.5 106.390002,154.589999 106.01,154.77 C105.629998,154.950001 105.306668,155.199998 105.04,155.52 C104.773332,155.840002 104.570001,156.209998 104.43,156.63 C104.289999,157.050002 104.22,157.499998 104.22,157.98 C104.22,158.460002 104.289999,158.913331 104.43,159.34 C104.570001,159.766669 104.773332,160.139998 105.04,160.46 C105.306668,160.780002 105.629998,161.033332 106.01,161.22 C106.390002,161.406668 106.819998,161.5 107.3,161.5 Z M117.77,163.2 C117.209997,163.2 116.720002,163.120001 116.3,162.96 C115.879998,162.799999 115.526668,162.580001 115.24,162.3 C114.953332,162.019999 114.740001,161.690002 114.6,161.31 C114.459999,160.929998 114.39,160.526669 114.39,160.1 C114.39,159.673331 114.466666,159.280002 114.62,158.92 C114.773334,158.559998 115.009998,158.246668 115.33,157.98 C115.650002,157.713332 116.066664,157.503334 116.58,157.35 C117.093336,157.196666 117.709996,157.12 118.43,157.12 C118.750002,157.12 119.046665,157.133333 119.32,157.16 C119.593335,157.186667 119.836666,157.22 120.05,157.26 C120.290001,157.3 120.509999,157.346666 120.71,157.4 L120.71,156.78 C120.71,156.019996 120.543335,155.450002 120.21,155.07 C119.876665,154.689998 119.323337,154.5 118.55,154.5 C118.136665,154.5 117.786668,154.563333 117.5,154.69 C117.213332,154.816667 116.976668,154.953333 116.79,155.1 C116.589999,155.286668 116.423334,155.493332 116.29,155.72 L114.99,155.72 L114.99,154.42 C115.190001,154.113332 115.456665,153.840001 115.79,153.6 C116.096668,153.386666 116.473331,153.200001 116.92,153.04 C117.366669,152.879999 117.929997,152.8 118.61,152.8 C119.956673,152.8 120.976663,153.136663 121.67,153.81 C122.363337,154.483337 122.71,155.48666 122.71,156.82 L122.71,163 L121.11,163 L120.87,161.56 C120.749999,161.733334 120.596668,161.916666 120.41,162.11 C120.223332,162.303334 120.003335,162.479999 119.75,162.64 C119.496665,162.800001 119.206668,162.933333 118.88,163.04 C118.553332,163.146667 118.183335,163.2 117.77,163.2 Z M118.09,161.58 C118.503335,161.58 118.869998,161.513334 119.19,161.38 C119.510002,161.246666 119.783332,161.073334 120.01,160.86 C120.236668,160.646666 120.409999,160.416668 120.53,160.17 C120.650001,159.923332 120.71,159.680001 120.71,159.44 L120.71,158.92 C120.523332,158.866666 120.310001,158.82 120.07,158.78 C119.856666,158.74 119.613335,158.706667 119.34,158.68 C119.066665,158.653333 118.763335,158.64 118.43,158.64 C118.029998,158.64 117.696668,158.68 117.43,158.76 C117.163332,158.84 116.950001,158.949999 116.79,159.09 C116.629999,159.230001 116.516667,159.386666 116.45,159.56 C116.383333,159.733334 116.35,159.913332 116.35,160.1 C116.35,161.086672 116.929994,161.58 118.09,161.58 Z M127.86,154.7 L124.66,154.7 L124.66,153 L133.06,153 L133.06,154.7 L129.86,154.7 L129.86,163 L127.86,163 L127.86,154.7 Z M135.29,153 L137.29,153 L137.29,160.02 L142.49,153 L144.29,153 L144.29,163 L142.29,163 L142.29,155.96 L137.09,163 L135.29,163 L135.29,153 Z M149.72,154.7 L146.52,154.7 L146.52,153 L154.92,153 L154.92,154.7 L151.72,154.7 L151.72,163 L149.72,163 L149.72,154.7 Z M157.15,153 L159.15,153 L159.15,156.4 L161.15,156.4 C161.85667,156.4 162.466664,156.479999 162.98,156.64 C163.493336,156.800001 163.916665,157.026665 164.25,157.32 C164.583335,157.613335 164.833333,157.953331 165,158.34 C165.166668,158.726669 165.25,159.153331 165.25,159.62 C165.25,160.100002 165.170001,160.543331 165.01,160.95 C164.849999,161.356669 164.600002,161.713332 164.26,162.02 C163.919998,162.326668 163.490003,162.566666 162.97,162.74 C162.449997,162.913334 161.83667,163 161.13,163 L157.15,163 L157.15,153 Z M160.99,161.4 C161.65667,161.4 162.183331,161.266668 162.57,161 C162.956669,160.733332 163.15,160.280003 163.15,159.64 C163.15,159.079997 162.963335,158.666668 162.59,158.4 C162.216665,158.133332 161.683337,158 160.99,158 L159.15,158 L159.15,161.4 L160.99,161.4 Z M167.15,160.6 L169.55,160.6 L169.55,163 L167.15,163 L167.15,160.6 Z" id="Копить-и-тратить." fill="#333235"></path>
                        <path d="M247.555826,134 L247.555826,124.973039 L259.845545,113.227113 C261.114401,112.030763 262.147597,110.789115 262.945164,109.502133 C263.742731,108.21515 264.141508,106.882871 264.141508,105.505255 C264.141508,104.272652 263.824299,103.330087 263.189871,102.677532 C262.555442,102.024978 261.730698,101.698705 260.715613,101.698705 C260.026805,101.698705 259.419576,101.843715 258.893907,102.13374 C258.368238,102.423764 257.924145,102.795352 257.561615,103.248515 C257.199084,103.701678 256.909064,104.209213 256.691546,104.771135 C256.474028,105.333057 256.329018,105.885907 256.256512,106.429703 L247.338309,106.429703 L247.338309,102.188119 C247.555827,101.028022 247.99992,99.8588787 248.670602,98.680655 C249.341283,97.5024313 250.247595,96.4329827 251.389566,95.4722772 C252.531537,94.5115717 253.945384,93.7321431 255.63115,93.133968 C257.316916,92.5357929 259.265488,92.2367098 261.476923,92.2367098 C263.434587,92.2367098 265.256275,92.4995404 266.942041,93.0252094 C268.627807,93.5508785 270.077907,94.3121808 271.292384,95.3091394 C272.506861,96.3060979 273.458489,97.5114933 274.147296,98.9253618 C274.836104,100.33923 275.180503,101.916214 275.180503,103.656359 C275.180503,105.178987 275.035493,106.529392 274.745468,107.707616 C274.455444,108.88584 273.993225,110.027793 273.358797,111.133511 C272.724368,112.239229 271.899624,113.363056 270.884539,114.505027 C269.869454,115.646997 268.654996,116.943024 267.241127,118.393145 L261.803199,123.939832 L275.778675,123.939832 L275.778675,134 L247.555826,134 Z M297.84458,134.978827 C295.306867,134.978827 293.041086,134.58005 291.047169,133.782483 C289.053252,132.984916 287.367511,131.888278 285.989896,130.492536 C284.612281,129.096794 283.560958,127.465432 282.835897,125.598401 C282.110837,123.731369 281.748312,121.746545 281.748312,119.643869 L281.748312,107.571668 C281.748312,105.432739 282.1199,103.429788 282.863087,101.562757 C283.606274,99.6957256 284.66666,98.0734265 286.044275,96.6958111 C287.421891,95.3181957 289.107632,94.2306209 291.101549,93.4330541 C293.095466,92.6354873 295.34312,92.2367098 297.84458,92.2367098 C300.382292,92.2367098 302.648073,92.6264241 304.64199,93.4058644 C306.635907,94.1853047 308.321648,95.2728795 309.699264,96.6686215 C311.076879,98.0643634 312.128202,99.6957256 312.853262,101.562757 C313.578323,103.429788 313.940848,105.432739 313.940848,107.571668 L313.940848,119.643869 C313.940848,121.746545 313.56926,123.731369 312.826073,125.598401 C312.082885,127.465432 311.0225,129.096794 309.644885,130.492536 C308.267269,131.888278 306.581528,132.984916 304.587611,133.782483 C302.593694,134.58005 300.346039,134.978827 297.84458,134.978827 Z M297.84458,125.516832 C299.620979,125.516832 300.980447,124.945855 301.923026,123.803884 C302.865605,122.661914 303.336888,121.275256 303.336888,119.643869 L303.336888,107.571668 C303.336888,105.940281 302.883731,104.553623 301.977405,103.411653 C301.07108,102.269682 299.693485,101.698705 297.84458,101.698705 C296.068181,101.698705 294.708713,102.269682 293.766134,103.411653 C292.823555,104.553623 292.352272,105.940281 292.352272,107.571668 L292.352272,119.643869 C292.352272,121.275256 292.805428,122.661914 293.711754,123.803884 C294.61808,124.945855 295.995675,125.516832 297.84458,125.516832 Z" id="20" fill="#FF7D7D"></path>
                    </g>
                </g>
            </g>
        </g>
    </g>
</svg>