<?xml version="1.0" encoding="UTF-8"?>
<svg width="314px" height="168px" viewBox="0 0 314 168" version="1.1" xmlns="http://www.w3.org/2000/svg" xmlns:xlink="http://www.w3.org/1999/xlink">
    <!-- Generator: Sketch 46.2 (44496) - http://www.bohemiancoding.com/sketch -->
    <title>Group 2</title>
    <desc>Created with Sketch.</desc>
    <defs></defs>
    <g id="Page-1" stroke="none" stroke-width="1" fill="none" fill-rule="evenodd">
        <g id="Login" transform="translate(-618.000000, -169.000000)">
            <g id="Group-2" transform="translate(615.000000, 148.000000)">
                <g id="Group" font-size="54.3792841" font-family="NavigoBlack, Navigo Black" letter-spacing="0.966742871" font-weight="700">
                    <text id="FIFTY50">
                        <tspan x="0" y="63" fill="#333235">FIFTY</tspan>
                        <tspan x="159.434019" y="63" fill="#3867FA">50</tspan>
                    </text>
                    <text id="THIRTY30">
                        <tspan x="2.58948972" y="108.31607" fill="#333235">THIRTY</tspan>
                        <tspan x="214.487434" y="108.31607" fill="#24CC82">30</tspan>
                    </text>
                    <text id="TWENTY20">
                        <tspan x="2.58948972" y="154.926885" fill="#333235">TWENTY</tspan>
                        <tspan x="248.14821" y="154.926885" fill="#FF7D7D">20</tspan>
                    </text>
                </g>
                <path d="M6.1,184 L3.9,184 L3.9,169 L6.1,169 L6.1,176.14 L12.64,169 L14.04,169 L14.04,170.4 L8.52,176.32 L14.5,182.5 L14.5,184 L13,184 L6.1,176.82 L6.1,184 Z M21.1155556,184.2 C20.3155516,184.2 19.6022254,184.063335 18.9755556,183.79 C18.3488858,183.516665 17.8155578,183.143336 17.3755556,182.67 C16.9355534,182.196664 16.6022234,181.643336 16.3755556,181.01 C16.1488878,180.376664 16.0355556,179.700004 16.0355556,178.98 C16.0355556,178.259996 16.1488878,177.58667 16.3755556,176.96 C16.6022234,176.33333 16.9355534,175.786669 17.3755556,175.32 C17.8155578,174.853331 18.3488858,174.483335 18.9755556,174.21 C19.6022254,173.936665 20.3155516,173.8 21.1155556,173.8 C21.9155596,173.8 22.6288858,173.936665 23.2555556,174.21 C23.8822254,174.483335 24.4122201,174.853331 24.8455556,175.32 C25.2788911,175.786669 25.6122211,176.33333 25.8455556,176.96 C26.0788901,177.58667 26.1955556,178.259996 26.1955556,178.98 C26.1955556,179.700004 26.0788901,180.376664 25.8455556,181.01 C25.6122211,181.643336 25.2788911,182.196664 24.8455556,182.67 C24.4122201,183.143336 23.8822254,183.516665 23.2555556,183.79 C22.6288858,184.063335 21.9155596,184.2 21.1155556,184.2 Z M21.1155556,182.5 C21.6355582,182.5 22.088887,182.406668 22.4755556,182.22 C22.8622242,182.033332 23.182221,181.780002 23.4355556,181.46 C23.6888902,181.139998 23.8788883,180.766669 24.0055556,180.34 C24.1322229,179.913331 24.1955556,179.460002 24.1955556,178.98 C24.1955556,178.499998 24.1322229,178.050002 24.0055556,177.63 C23.8788883,177.209998 23.6888902,176.843335 23.4355556,176.53 C23.182221,176.216665 22.8622242,175.966668 22.4755556,175.78 C22.088887,175.593332 21.6355582,175.5 21.1155556,175.5 C20.595553,175.5 20.1422242,175.593332 19.7555556,175.78 C19.368887,175.966668 19.0488902,176.216665 18.7955556,176.53 C18.542221,176.843335 18.3522229,177.209998 18.2255556,177.63 C18.0988883,178.050002 18.0355556,178.499998 18.0355556,178.98 C18.0355556,179.460002 18.0988883,179.913331 18.2255556,180.34 C18.3522229,180.766669 18.542221,181.139998 18.7955556,181.46 C19.0488902,181.780002 19.368887,182.033332 19.7555556,182.22 C20.1422242,182.406668 20.595553,182.5 21.1155556,182.5 Z M28.8911111,174 L37.4911111,174 L37.4911111,184 L35.4911111,184 L35.4911111,175.7 L30.8911111,175.7 L30.8911111,184 L28.8911111,184 L28.8911111,174 Z M40.8066667,174 L42.8066667,174 L42.8066667,181.02 L48.0066667,174 L49.8066667,174 L49.8066667,184 L47.8066667,184 L47.8066667,176.96 L42.6066667,184 L40.8066667,184 L40.8066667,174 Z M55.2222223,175.7 L52.0222223,175.7 L52.0222223,174 L60.4222223,174 L60.4222223,175.7 L57.2222223,175.7 L57.2222223,184 L55.2222223,184 L55.2222223,175.7 Z M62.6377778,174 L64.6377778,174 L64.6377778,177.4 L66.6377778,177.4 C67.344448,177.4 67.9544419,177.479999 68.4677778,177.64 C68.9811137,177.800001 69.4044428,178.026665 69.7377778,178.32 C70.0711128,178.613335 70.3211103,178.953331 70.4877778,179.34 C70.6544453,179.726669 70.7377778,180.153331 70.7377778,180.62 C70.7377778,181.100002 70.6577786,181.543331 70.4977778,181.95 C70.337777,182.356669 70.0877795,182.713332 69.7477778,183.02 C69.4077761,183.326668 68.9777804,183.566666 68.4577778,183.74 C67.9377752,183.913334 67.324448,184 66.6177778,184 L62.6377778,184 L62.6377778,174 Z M66.4777778,182.4 C67.1444478,182.4 67.6711092,182.266668 68.0577778,182 C68.4444464,181.733332 68.6377778,181.280003 68.6377778,180.64 C68.6377778,180.079997 68.451113,179.666668 68.0777778,179.4 C67.7044426,179.133332 67.1711146,179 66.4777778,179 L64.6377778,179 L64.6377778,182.4 L66.4777778,182.4 Z M78.2288889,174 L80.2288889,174 L80.2288889,181.02 L85.4288889,174 L87.2288889,174 L87.2288889,184 L85.2288889,184 L85.2288889,176.96 L80.0288889,184 L78.2288889,184 L78.2288889,174 Z M97.6600001,175.7 L94.4600001,175.7 L94.4600001,174 L102.86,174 L102.86,175.7 L99.6600001,175.7 L99.6600001,184 L97.6600001,184 L97.6600001,175.7 Z M105.075556,174 L106.875556,174 L107.055556,175.58 C107.442224,175.019997 107.928886,174.583335 108.515556,174.27 C109.102225,173.956665 109.782218,173.8 110.555556,173.8 C111.288893,173.8 111.945553,173.936665 112.525556,174.21 C113.105559,174.483335 113.595554,174.853331 113.995556,175.32 C114.395558,175.786669 114.702221,176.33333 114.915556,176.96 C115.12889,177.58667 115.235556,178.259996 115.235556,178.98 C115.235556,179.700004 115.12889,180.376664 114.915556,181.01 C114.702221,181.643336 114.395558,182.196664 113.995556,182.67 C113.595554,183.143336 113.105559,183.516665 112.525556,183.79 C111.945553,184.063335 111.288893,184.2 110.555556,184.2 C109.782218,184.2 109.105559,184.043335 108.525556,183.73 C107.945553,183.416665 107.462224,182.986669 107.075556,182.44 L107.075556,189 L105.075556,189 L105.075556,174 Z M110.155556,182.5 C110.675558,182.5 111.128887,182.406668 111.515556,182.22 C111.902224,182.033332 112.222221,181.780002 112.475556,181.46 C112.72889,181.139998 112.918888,180.766669 113.045556,180.34 C113.172223,179.913331 113.235556,179.460002 113.235556,178.98 C113.235556,178.499998 113.172223,178.050002 113.045556,177.63 C112.918888,177.209998 112.72889,176.840002 112.475556,176.52 C112.222221,176.199998 111.902224,175.950001 111.515556,175.77 C111.128887,175.589999 110.675558,175.5 110.155556,175.5 C109.675553,175.5 109.245558,175.589999 108.865556,175.77 C108.485554,175.950001 108.162224,176.199998 107.895556,176.52 C107.628888,176.840002 107.425556,177.209998 107.285556,177.63 C107.145555,178.050002 107.075556,178.499998 107.075556,178.98 C107.075556,179.460002 107.145555,179.913331 107.285556,180.34 C107.425556,180.766669 107.628888,181.139998 107.895556,181.46 C108.162224,181.780002 108.485554,182.033332 108.865556,182.22 C109.245558,182.406668 109.675553,182.5 110.155556,182.5 Z M120.611111,184.2 C120.051108,184.2 119.561113,184.120001 119.141111,183.96 C118.721109,183.799999 118.367779,183.580001 118.081111,183.3 C117.794443,183.019999 117.581112,182.690002 117.441111,182.31 C117.301111,181.929998 117.231111,181.526669 117.231111,181.1 C117.231111,180.673331 117.307777,180.280002 117.461111,179.92 C117.614445,179.559998 117.85111,179.246668 118.171111,178.98 C118.491113,178.713332 118.907775,178.503334 119.421111,178.35 C119.934447,178.196666 120.551108,178.12 121.271111,178.12 C121.591113,178.12 121.887777,178.133333 122.161111,178.16 C122.434446,178.186667 122.677777,178.22 122.891111,178.26 C123.131112,178.3 123.35111,178.346666 123.551111,178.4 L123.551111,177.78 C123.551111,177.019996 123.384446,176.450002 123.051111,176.07 C122.717776,175.689998 122.164448,175.5 121.391111,175.5 C120.977776,175.5 120.627779,175.563333 120.341111,175.69 C120.054443,175.816667 119.817779,175.953333 119.631111,176.1 C119.43111,176.286668 119.264445,176.493332 119.131111,176.72 L117.831111,176.72 L117.831111,175.42 C118.031112,175.113332 118.297776,174.840001 118.631111,174.6 C118.937779,174.386666 119.314442,174.200001 119.761111,174.04 C120.20778,173.879999 120.771108,173.8 121.451111,173.8 C122.797785,173.8 123.817774,174.136663 124.511111,174.81 C125.204448,175.483337 125.551111,176.48666 125.551111,177.82 L125.551111,184 L123.951111,184 L123.711111,182.56 C123.591111,182.733334 123.437779,182.916666 123.251111,183.11 C123.064444,183.303334 122.844446,183.479999 122.591111,183.64 C122.337777,183.800001 122.04778,183.933333 121.721111,184.04 C121.394443,184.146667 121.024447,184.2 120.611111,184.2 Z M120.931111,182.58 C121.344447,182.58 121.71111,182.513334 122.031111,182.38 C122.351113,182.246666 122.624443,182.073334 122.851111,181.86 C123.077779,181.646666 123.251111,181.416668 123.371111,181.17 C123.491112,180.923332 123.551111,180.680001 123.551111,180.44 L123.551111,179.92 C123.364444,179.866666 123.151112,179.82 122.911111,179.78 C122.697777,179.74 122.454446,179.706667 122.181111,179.68 C121.907777,179.653333 121.604446,179.64 121.271111,179.64 C120.871109,179.64 120.537779,179.68 120.271111,179.76 C120.004443,179.84 119.791112,179.949999 119.631111,180.09 C119.47111,180.230001 119.357778,180.386666 119.291111,180.56 C119.224444,180.733334 119.191111,180.913332 119.191111,181.1 C119.191111,182.086672 119.771105,182.58 120.931111,182.58 Z M130.686667,175.7 L127.486667,175.7 L127.486667,174 L135.886667,174 L135.886667,175.7 L132.686667,175.7 L132.686667,184 L130.686667,184 L130.686667,175.7 Z M138.102222,174 L140.102222,174 L140.102222,181.02 L145.302222,174 L147.102222,174 L147.102222,184 L145.102222,184 L145.102222,176.96 L139.902222,184 L138.102222,184 L138.102222,174 Z M152.517778,175.7 L149.317778,175.7 L149.317778,174 L157.717778,174 L157.717778,175.7 L154.517778,175.7 L154.517778,184 L152.517778,184 L152.517778,175.7 Z M159.933333,174 L161.933333,174 L161.933333,177.4 L163.933333,177.4 C164.640004,177.4 165.249998,177.479999 165.763333,177.64 C166.276669,177.800001 166.699998,178.026665 167.033333,178.32 C167.366668,178.613335 167.616666,178.953331 167.783333,179.34 C167.950001,179.726669 168.033333,180.153331 168.033333,180.62 C168.033333,181.100002 167.953334,181.543331 167.793333,181.95 C167.633333,182.356669 167.383335,182.713332 167.043333,183.02 C166.703332,183.326668 166.273336,183.566666 165.753333,183.74 C165.233331,183.913334 164.620004,184 163.913333,184 L159.933333,184 L159.933333,174 Z M163.773333,182.4 C164.440003,182.4 164.966665,182.266668 165.353333,182 C165.740002,181.733332 165.933333,181.280003 165.933333,180.64 C165.933333,180.079997 165.746669,179.666668 165.373333,179.4 C164.999998,179.133332 164.46667,179 163.773333,179 L161.933333,179 L161.933333,182.4 L163.773333,182.4 Z M179.984445,184.2 C179.131107,184.2 178.387781,184.063335 177.754445,183.79 C177.121108,183.516665 176.594447,183.143336 176.174445,182.67 C175.754442,182.196664 175.437779,181.643336 175.224445,181.01 C175.01111,180.376664 174.904445,179.700004 174.904445,178.98 C174.904445,178.259996 175.017777,177.58667 175.244445,176.96 C175.471112,176.33333 175.804442,175.783336 176.244445,175.31 C176.684447,174.836664 177.217775,174.463335 177.844445,174.19 C178.471114,173.916665 179.184441,173.78 179.984445,173.78 C180.771115,173.78 181.411109,173.876666 181.904445,174.07 C182.39778,174.263334 182.784443,174.473332 183.064445,174.7 C183.39778,174.966668 183.644444,175.273332 183.804445,175.62 L183.804445,176.92 L182.504445,176.92 C182.411111,176.653332 182.257779,176.413334 182.044445,176.2 C181.844444,175.999999 181.584446,175.830001 181.264445,175.69 C180.944443,175.549999 180.517781,175.48 179.984445,175.48 C179.464442,175.48 179.011113,175.573332 178.624445,175.76 C178.237776,175.946668 177.917779,176.196665 177.664445,176.51 C177.41111,176.823335 177.221112,177.193331 177.094445,177.62 C176.967777,178.046669 176.904445,178.499998 176.904445,178.98 C176.904445,179.460002 176.967777,179.913331 177.094445,180.34 C177.221112,180.766669 177.41111,181.139998 177.664445,181.46 C177.917779,181.780002 178.237776,182.033332 178.624445,182.22 C179.011113,182.406668 179.464442,182.5 179.984445,182.5 C180.544447,182.5 180.99111,182.426667 181.324445,182.28 C181.65778,182.133333 181.91111,181.966668 182.084445,181.78 C182.297779,181.566666 182.444444,181.326668 182.524445,181.06 L183.824445,181.06 L183.824445,182.36 C183.664444,182.706668 183.41778,183.013332 183.084445,183.28 C182.777776,183.533335 182.381114,183.749999 181.894445,183.93 C181.407775,184.110001 180.771115,184.2 179.984445,184.2 Z M191.455556,189 L191.455556,187.6 L194.475556,182.4 L190.635556,175.4 L190.635556,174 L192.035556,174 L195.555556,180.52 L199.015556,174 L200.315556,174 L200.315556,175.3 L192.855556,189 L191.455556,189 Z M204.391111,177.04 L204.391111,184 L202.491111,184 L202.491111,174 L204.691111,174 L208.111111,179.3 L211.471111,174 L213.671111,174 L213.671111,184 L211.671111,184 L211.671111,177 L208.671111,181.6 L207.371111,181.6 L204.391111,177.04 Z M221.446667,184.2 C220.646663,184.2 219.933337,184.063335 219.306667,183.79 C218.679997,183.516665 218.146669,183.143336 217.706667,182.67 C217.266665,182.196664 216.933335,181.643336 216.706667,181.01 C216.479999,180.376664 216.366667,179.700004 216.366667,178.98 C216.366667,178.259996 216.479999,177.58667 216.706667,176.96 C216.933335,176.33333 217.266665,175.786669 217.706667,175.32 C218.146669,174.853331 218.679997,174.483335 219.306667,174.21 C219.933337,173.936665 220.646663,173.8 221.446667,173.8 C222.246671,173.8 222.959997,173.936665 223.586667,174.21 C224.213337,174.483335 224.743331,174.853331 225.176667,175.32 C225.610002,175.786669 225.943332,176.33333 226.176667,176.96 C226.410001,177.58667 226.526667,178.259996 226.526667,178.98 C226.526667,179.700004 226.410001,180.376664 226.176667,181.01 C225.943332,181.643336 225.610002,182.196664 225.176667,182.67 C224.743331,183.143336 224.213337,183.516665 223.586667,183.79 C222.959997,184.063335 222.246671,184.2 221.446667,184.2 Z M221.446667,182.5 C221.966669,182.5 222.419998,182.406668 222.806667,182.22 C223.193335,182.033332 223.513332,181.780002 223.766667,181.46 C224.020001,181.139998 224.21,180.766669 224.336667,180.34 C224.463334,179.913331 224.526667,179.460002 224.526667,178.98 C224.526667,178.499998 224.463334,178.050002 224.336667,177.63 C224.21,177.209998 224.020001,176.843335 223.766667,176.53 C223.513332,176.216665 223.193335,175.966668 222.806667,175.78 C222.419998,175.593332 221.966669,175.5 221.446667,175.5 C220.926664,175.5 220.473335,175.593332 220.086667,175.78 C219.699998,175.966668 219.380001,176.216665 219.126667,176.53 C218.873332,176.843335 218.683334,177.209998 218.556667,177.63 C218.43,178.050002 218.366667,178.499998 218.366667,178.98 C218.366667,179.460002 218.43,179.913331 218.556667,180.34 C218.683334,180.766669 218.873332,181.139998 219.126667,181.46 C219.380001,181.780002 219.699998,182.033332 220.086667,182.22 C220.473335,182.406668 220.926664,182.5 221.446667,182.5 Z M231.122222,177.04 L231.122222,184 L229.222222,184 L229.222222,174 L231.422222,174 L234.842222,179.3 L238.202222,174 L240.402222,174 L240.402222,184 L238.402222,184 L238.402222,177 L235.402222,181.6 L234.102222,181.6 L231.122222,177.04 Z M243.557778,181.6 L245.957778,181.6 L245.957778,184 L243.557778,184 L243.557778,181.6 Z" id="Копить-и-тратить-с-у" fill="#333235"></path>
            </g>
        </g>
    </g>
</svg>